<svg width="16" height="16" viewBox="0 0 16 16" fill="none" xmlns="http://www.w3.org/2000/svg">
<path class="fill" d="M3.33333 13.3333C3.33333 13.6869 3.47381 14.0261 3.72386 14.2761C3.97391 14.5262 4.31304 14.6667 4.66667 14.6667H11.3333C11.687 14.6667 12.0261 14.5262 12.2761 14.2761C12.5262 14.0261 12.6667 13.6869 12.6667 13.3333V5.33333H14V3.99999H11.3333V2.66666C11.3333 2.31304 11.1929 1.9739 10.9428 1.72385C10.6928 1.4738 10.3536 1.33333 10 1.33333H6C5.64638 1.33333 5.30724 1.4738 5.05719 1.72385C4.80714 1.9739 4.66667 2.31304 4.66667 2.66666V3.99999H2V5.33333H3.33333V13.3333ZM6 2.66666H10V3.99999H6V2.66666ZM5.33333 5.33333H11.3333V13.3333H4.66667V5.33333H5.33333Z" fill="#999CA3"/>
<path class="fill" d="M6 6.66667H7.33333V12H6V6.66667ZM8.66667 6.66667H10V12H8.66667V6.66667Z" fill="#999CA3"/>
</svg>
